<?xml version="1.0" encoding="utf-8"?>
<!-- Generator: Adobe Illustrator 28.0.0, SVG Export Plug-In . SVG Version: 6.00 Build 0)  -->
<svg version="1.1" id="Layer_1" xmlns="http://www.w3.org/2000/svg" xmlns:xlink="http://www.w3.org/1999/xlink" x="0px" y="0px"
	 viewBox="0 0 1183.2 876" style="enable-background:new 0 0 1183.2 876;" xml:space="preserve">
<path d="M309.3,766.1h173c0.3-5.9,0.9-11.6,0.9-17.1c0-57.1-0.3-114.3,0.1-171.4c0.4-55.5,41.8-102.1,94.6-107.5
	c57.7-5.9,107.6,29.3,119.8,85.1c2.1,10,2.1,20.6,2.3,30.8c0.3,58.2,0.1,116.5,0.3,174.7c0,1,0.4,2.1,1,4.6H873c0.3-6,1-12.3,1-18.6
	c0-102.3,0-204.7,0-306.9c0-4.3-0.1-8.7,0-13c0.6-17.4,8.1-27.3,21.3-27.7c13.7-0.4,22.6,10.1,22.6,28c0.1,99.6,0,199.1,0,298.8
	c0,19,0.3,38.1,0,57.1c-0.3,19.1-7.9,26.8-26.8,27c-69.1,0.1-138.3,0.1-207.4,0c-19.1,0-26.7-7.6-26.7-26.7
	c-0.1-68.1,0.3-136-0.3-204.1c-0.4-46.7-44-77.7-86.8-62.7c-26.5,9.3-43.4,33.8-43.4,64.5c-0.1,65.8,0,131.7,0,197.6
	c0,25.4-6.1,31.4-32,31.4c-65.8,0-131.7,0-197.7,0c-24.6,0-31.4-6.6-31.4-30.5c0-116.5,0-233,0-349.4c0-5.4-0.9-12.6,2.1-15.7
	c5.7-6.3,13.8-14.4,20.7-14.1c6.9,0.3,14.8,8.8,19.4,15.8c3.1,4.7,1.6,12.7,1.6,19.1c0,103.3,0,206.8,0,310.2
	C309.2,751.7,309.2,758.1,309.3,766.1L309.3,766.1z"/>
<path d="M591.7,113.4c-115.9,84.8-230.4,168.6-345,252.5c-10.6,7.7-21.1,15.4-31.7,23.1c-16.6,11.8-28.4,12-37.1,0.6
	c-8.7-11.6-5.1-23.4,11.1-35.3c75.9-55.7,151.9-111.2,227.8-166.7c51.8-38,103.8-75.5,155.3-113.9c14.1-10.6,25.6-10.1,39.5,0.1
	C739.1,167.6,867,261.1,994.8,354.5c11.6,8.4,20,17.7,12.1,32.7c-7,13.4-21,14.8-36.1,3.7c-64.2-46.8-128.2-93.8-192.3-140.7
	C716.4,204.6,654.6,159.3,591.7,113.4L591.7,113.4z"/>
</svg>
