<?xml version="1.0" encoding="utf-8"?>
<!-- Generator: Adobe Illustrator 28.0.0, SVG Export Plug-In . SVG Version: 6.00 Build 0)  -->
<svg version="1.1" id="Layer_1" xmlns="http://www.w3.org/2000/svg" xmlns:xlink="http://www.w3.org/1999/xlink" x="0px" y="0px"
	 viewBox="0 0 1577.8 959.9" style="enable-background:new 0 0 1577.8 959.9;" xml:space="preserve">
<path d="M597.3,506.2c-18.7-44.2-39.5-85.7-53.8-129.2c-29.1-88.5-20.9-174.7,35.5-250.5c57.2-76.8,138-103.3,230.6-85.1
	c94.4,18.5,153.3,78.6,179,170.7c18.5,66.6,11.1,131.7-15.4,194.8c-13.8,32.8-29.6,64.7-45.6,99.3c25.8,0,51.2,1.6,76.2-0.4
	c27.9-2.3,42.5,8,53.4,34.4c47,113.5,96.2,226.1,144.6,339.1c12.4,29,2.2,44.7-29.3,44.7c-272.9,0-545.8,0-818.7,0
	c-30.5,0-41.2-15.8-29.4-43.5c50-116.7,100.3-233.2,149.8-350c7.4-17.5,18.3-24.9,37-24.4C539.9,506.8,568.7,506.2,597.3,506.2
	L597.3,506.2z M763.3,648.4c70.8-92.3,138.1-183.7,172.9-294.1c12.4-39.4,12.5-79.5,3.9-119.7c-18.3-85.4-87.6-144.2-172.3-146
	c-88.6-1.9-158.5,52.2-180.2,139.7c-12.7,51.5-8.1,101.8,10.8,151.2C636.3,478.2,697,562.9,763.3,648.4L763.3,648.4z M1082.7,739.2
	c-0.3-2.6,0-4.5-0.6-6c-23.5-55.1-46.9-110.3-71.2-165.1c-2-4.5-10.2-8.8-15.6-9c-29.4-0.9-58.9,0-88.3-0.7
	c-10.6-0.3-16.3,3.9-22.4,12.2c-32,43.8-64.3,87.3-97.5,130.2c-15.3,19.8-31.1,19.2-47.3,0.6c-10.6-12.1-20.6-24.7-31.4-37.7
	c-31.1,15.9-61.5,31.5-93.4,47.8c5.6,6,9.4,10.2,13.4,14.2c41.6,41.7,83.3,83.3,125,124.9c24.1,24.1,59.5,29.2,90.5,13.1
	c73.7-38.3,147.4-76.5,221.1-114.9C1071,745.8,1076.9,742.4,1082.7,739.2L1082.7,739.2z M699.3,871.1
	c-44.5-44.5-85.9-86.3-128.1-127.4c-3.1-3.1-12.6-2.8-17.4-0.5c-40.9,20.2-80.4,43.4-122.2,61.2c-31.5,13.4-32.9,41.8-46.4,66.7
	H699.3z M676.3,621.3c-12.7-18.5-23.3-35.7-35.9-51.4c-4.5-5.6-13.5-10.4-20.7-10.7c-28.8-1.2-57.7,0-86.5-0.8
	c-11.2-0.3-16,4.1-20.2,13.9c-21.3,51-43.4,101.6-65.2,152.4c-1.8,4.2-2.9,8.7-5.3,16C522.3,700.1,598.6,661,676.3,621.3
	L676.3,621.3z M945.2,870.1H1141c-12.4-28.6-23.9-55.3-35.9-83C1051.6,814.9,1000,841.6,945.2,870.1z"/>
<path d="M763.5,349.2c-43.4,0.1-78.6-34.7-78.7-77.7c-0.1-42.8,35.4-78.6,78.2-78.7c42.8-0.2,78.4,35.3,78.7,78.2
	C842,313.9,806.8,349.1,763.5,349.2L763.5,349.2z M789,271.6c0.2-14.3-12.1-26.8-26.2-26.5c-13.4,0.3-25.1,12.1-25.3,25.7
	c-0.2,14.1,10.5,25.4,24.5,26C777,297.5,788.8,286.4,789,271.6z"/>
</svg>
