<?xml version="1.0" encoding="utf-8"?>
<!-- Generator: Adobe Illustrator 28.0.0, SVG Export Plug-In . SVG Version: 6.00 Build 0)  -->
<svg version="1.1" id="Layer_1" xmlns="http://www.w3.org/2000/svg" xmlns:xlink="http://www.w3.org/1999/xlink" x="0px" y="0px"
	 viewBox="0 0 981.6 799.5" style="enable-background:new 0 0 981.6 799.5;" xml:space="preserve">
<path d="M707.3,476.8c0,30.6,0.1,57.4,0,84.2c-0.4,59-35.4,93.9-94.2,94c-149.6,0.1-299.2,0.1-448.8,0c-57.6,0-93.7-35.8-93.7-92.9
	c-0.1-121.5-0.1-243,0-364.4c0-57.4,35.9-93.2,93.3-93.3c150.1-0.1,300.3-0.1,450.4,0c56.8,0,92.3,35.2,92.9,91.9
	c0.3,27.3,0,54.6,0,86.1c75.9-40.9,148.8-80.1,223.1-120V597C856.1,556.9,783.4,517.8,707.3,476.8L707.3,476.8z M389.4,620.5
	c74.5,0,149,0.1,223.4,0c40.3-0.1,59.8-19.6,59.8-59.7c0.1-120.9,0.1-241.7,0-362.6c0-40-19.7-59.6-60-59.6
	c-149-0.1-297.9-0.1-446.8,0c-40.9,0-61.1,20-61.2,60.6c-0.1,120.3-0.1,240.6,0,360.9c0,40.5,20.2,60.4,61.2,60.5
	C240.5,620.6,314.9,620.6,389.4,620.5L389.4,620.5z M896,221.4c-3.2,0.9-5.4,1.1-7.2,2c-57.6,30.9-115.4,61.8-172.6,93.4
	c-4.7,2.6-8.3,11.4-8.5,17.4c-0.9,29.6,0.1,59.3-0.7,89c-0.3,11,3.3,16.9,13.2,22.1c53.9,28.4,107.4,57.6,161.1,86.5
	c4.2,2.3,8.7,4,14.6,6.8V221.4L896,221.4z"/>
</svg>
