<?xml version="1.0" encoding="utf-8"?>
<!-- Generator: Adobe Illustrator 28.0.0, SVG Export Plug-In . SVG Version: 6.00 Build 0)  -->
<svg version="1.1" id="map-icon" xmlns="http://www.w3.org/2000/svg" xmlns:xlink="http://www.w3.org/1999/xlink" x="0px" y="0px"
	 viewBox="0 0 1577.8 959.9" style="enable-background:new 0 0 1577.8 959.9;" xml:space="preserve">
<path d="M586.2,498.6c-19-45-40.2-87.3-54.8-131.6c-29.6-90.1-21.3-177.9,36.1-255.1C625.8,33.8,708.1,6.8,802.4,25.3
	c96.1,18.8,156.1,80,182.3,173.8c18.8,67.8,11.3,134.1-15.7,198.4c-14.1,33.4-30.1,65.9-46.4,101.1c26.3,0,52.1,1.6,77.6-0.4
	c28.4-2.3,43.3,8.1,54.4,35c47.9,115.6,98,230.2,147.2,345.3c12.6,29.5,2.2,45.5-29.8,45.5c-277.9,0-555.8,0-833.6,0
	c-31.1,0-42-16.1-29.9-44.3c50.9-118.8,102.1-237.5,152.5-356.4c7.5-17.8,18.6-25.4,37.7-24.8C527.7,499.2,557.1,498.6,586.2,498.6
	L586.2,498.6z M755.2,643.4c72.1-94,140.6-187,176.1-299.5c12.6-40.1,12.7-80.9,4-121.9c-18.6-87-89.2-146.8-175.4-148.7
	c-90.2-1.9-161.4,53.2-183.5,142.2c-12.9,52.4-8.2,103.7,11,154C625.9,470.1,687.7,556.3,755.2,643.4L755.2,643.4z M1080.4,735.8
	c-0.3-2.6,0-4.6-0.6-6.1c-23.9-56.1-47.8-112.3-72.5-168.1c-2-4.6-10.4-9-15.9-9.2c-29.9-0.9-60,0-89.9-0.7
	c-10.8-0.3-16.6,4-22.8,12.4c-32.6,44.6-65.5,88.9-99.3,132.6c-15.6,20.2-31.7,19.6-48.2,0.6c-10.8-12.3-21-25.2-32-38.4
	c-31.7,16.2-62.6,32.1-95.1,48.7c5.7,6.1,9.6,10.4,13.6,14.5c42.4,42.5,84.8,84.8,127.3,127.2c24.5,24.5,60.6,29.7,92.2,13.3
	c75-39,150.1-77.9,225.1-117C1068.5,742.6,1074.5,739.1,1080.4,735.8L1080.4,735.8z M690,870.1c-45.3-45.3-87.5-87.9-130.4-129.7
	c-3.2-3.2-12.8-2.9-17.7-0.5c-41.6,20.6-81.9,44.2-124.4,62.3c-32.1,13.6-33.5,42.6-47.2,67.9H690z M666.6,615.8
	c-12.9-18.8-23.7-36.4-36.6-52.3c-4.6-5.7-13.7-10.6-21.1-10.9c-29.3-1.2-58.8,0-88.1-0.8c-11.4-0.3-16.3,4.2-20.6,14.2
	c-21.7,51.9-44.2,103.5-66.4,155.2c-1.8,4.3-3,8.9-5.4,16.3C509.8,696,587.5,656.2,666.6,615.8L666.6,615.8z M940.4,869.1h199.4
	c-12.6-29.1-24.3-56.3-36.6-84.5C1048.8,812.9,996.2,840.1,940.4,869.1z"/>
<path d="M755.4,338.7c-44.2,0.1-80-35.3-80.1-79.1c-0.1-43.6,36-80,79.6-80.1c43.6-0.2,79.8,35.9,80.1,79.6
	C835.3,302.8,799.5,338.6,755.4,338.7L755.4,338.7z M781.4,259.7c0.2-14.6-12.3-27.3-26.7-27c-13.6,0.3-25.6,12.3-25.8,26.2
	c-0.2,14.4,10.7,25.9,24.9,26.5C769.2,286.1,781.2,274.8,781.4,259.7z"/>
</svg>
