<?xml version="1.0" encoding="utf-8"?>
<!-- Generator: Adobe Illustrator 28.0.0, SVG Export Plug-In . SVG Version: 6.00 Build 0)  -->
<svg version="1.1" id="weather-icon" xmlns="http://www.w3.org/2000/svg" xmlns:xlink="http://www.w3.org/1999/xlink" x="0px"
	 y="0px" viewBox="0 0 1375.5 910.2" style="enable-background:new 0 0 1375.5 910.2;" xml:space="preserve">
<path d="M448.3,614.6c-46.7-31.9-77.8-73.9-90.7-128.1C332.9,382.8,388.3,278.2,487,240.3c99.1-38,209.3,2.5,260.7,96.6
	c5.9,10.8,12.8,14.3,24.3,15.4c72.7,6.8,126.1,43.4,160.1,107.7c5.8,10.9,11.6,14.3,23.8,14.5c102.8,1.6,182.9,84.1,182.2,186.4
	c-0.8,100.5-82.7,181.7-184.9,182.1c-123.6,0.5-247.3,0.7-370.9,0.2c-98.5-0.4-165.6-74.5-154.4-169.4c1.2-10.4,4.2-20.6,7.6-30.5
	C438.6,633.8,443.5,625,448.3,614.6L448.3,614.6z M768.2,790.3c0-0.2,0-0.4,0-0.6c61.5,0,123,0.2,184.6-0.1
	c10.5-0.1,21.2-0.8,31.3-3.2c66.6-16.4,110.8-81.7,99.8-146.9c-12.1-71.6-72.8-118.5-144.6-111.5c-33.9,3.3-35.9,2.1-47.5-29.4
	c-24.9-66.9-95.6-106.3-165-91.9C656.3,421.2,607.4,485,611,557.6c1.8,35.4-3.2,40.7-38.6,41.3c-49.4,0.9-90.5,40.7-92.9,89.8
	c-2.7,57.2,39.1,100.7,99.1,101.5C641.7,790.9,705,790.3,768.2,790.3L768.2,790.3z M697.8,358.8c0-1,0.2-1.6,0-2.1
	c-26.5-51.3-94.4-85.1-154.3-76.7c-68.9,9.7-123.4,60.2-136.2,126.4C395,470.1,425.4,541.1,478,570.2c3.5,1.9,9,2.9,12.4,1.5
	c21.9-9.2,43.4-19.2,66.9-29.8C564.2,453.2,611.1,390.7,697.8,358.8L697.8,358.8z"/>
<path d="M536.5,119.6c0-9.3-0.5-18.7,0.1-27.9c1.1-14.9,9.7-23.4,24.4-24.8c13.9-1.3,26.7,8.7,27.6,23.4c1.2,19.1,1.2,38.4,0.1,57.6
	c-0.8,14.7-13.5,24.8-27.2,24.2c-14-0.6-24.2-11-25-26.3C536,137.1,536.5,128.3,536.5,119.6L536.5,119.6L536.5,119.6z"/>
<path d="M336.1,286.1c0.7,23.7-18.4,37.6-36,29.3c-17.8-8.5-35-18.7-51.4-29.6c-11.4-7.6-14.5-19.7-7.9-32.4
	c7-13.4,19.4-18.4,32.5-12.4c18.4,8.5,35.9,19.2,52.9,30.5C331.8,275.1,334.4,283.3,336.1,286.1L336.1,286.1z"/>
<path d="M815.1,323.6c-10.3-9.6-21.7-15.3-23.5-23.2c-2-8.8,1.5-23.5,8.1-28.9c15.1-12.4,32.8-22.6,51-29.7c8-3.1,22.9,0.6,29.1,6.8
	c5.5,5.4,7.8,24.1,3.6,27.5C862.9,293.1,839.7,307.1,815.1,323.6L815.1,323.6z"/>
<path d="M264.1,641c-9.8-9.2-21.5-15.1-23.6-23.4c-2.2-8.5,2-23.1,8.7-28.5c15.2-12.3,32.9-22.5,51.2-29.5c7.9-3,23.3,0.8,28.7,7.2
	c5.4,6.3,7,25.2,2.4,29C311.7,612.2,289,624.9,264.1,641L264.1,641z"/>
</svg>
