<?xml version="1.0" encoding="utf-8"?>
<!-- Generator: Adobe Illustrator 28.0.0, SVG Export Plug-In . SVG Version: 6.00 Build 0)  -->
<svg version="1.1" id="webcam-icon" xmlns="http://www.w3.org/2000/svg" xmlns:xlink="http://www.w3.org/1999/xlink" x="0px"
	 y="0px" viewBox="0 0 981.6 799.5" style="enable-background:new 0 0 981.6 799.5;" xml:space="preserve">
<path d="M684.8,490.8c0,28.7,0.1,53.8,0,79c-0.4,55.3-33.2,88.1-88.4,88.2c-140.3,0.1-280.6,0.1-420.9,0c-54,0-87.9-33.6-87.9-87.1
	c-0.1-114-0.1-227.9,0-341.8c0-53.8,33.7-87.4,87.5-87.5c140.8-0.1,281.7-0.1,422.4,0c53.3,0,86.6,33,87.1,86.2
	c0.3,25.6,0,51.2,0,80.8c71.2-38.4,139.6-75.1,209.2-112.5v407.6C824.4,565.9,756.2,529.3,684.8,490.8L684.8,490.8z M386.7,625.6
	c69.9,0,139.7,0.1,209.5,0c37.8-0.1,56.1-18.4,56.1-56c0.1-113.4,0.1-226.7,0-340.1c0-37.5-18.5-55.9-56.3-55.9
	c-139.7-0.1-279.4-0.1-419.1,0c-38.4,0-57.3,18.8-57.4,56.8c-0.1,112.8-0.1,225.7,0,338.5c0,38,18.9,56.6,57.4,56.7
	C247,625.7,316.8,625.7,386.7,625.6L386.7,625.6z M861.8,251.3c-3,0.8-5.1,1-6.8,1.9c-54,29-108.2,58-161.9,87.6
	c-4.4,2.4-7.8,10.7-8,16.3c-0.8,27.8,0.1,55.6-0.7,83.5c-0.3,10.3,3.1,15.9,12.4,20.7c50.6,26.6,100.7,54,151.1,81.1
	c3.9,2.2,8.2,3.8,13.7,6.4L861.8,251.3L861.8,251.3z"/>
</svg>
